<!-- Generator: Adobe Illustrator 18.0.0, SVG Export Plug-In  -->
<svg version="1.1"
	 xmlns="http://www.w3.org/2000/svg" xmlns:xlink="http://www.w3.org/1999/xlink" xmlns:a="http://ns.adobe.com/AdobeSVGViewerExtensions/3.0/"
	 x="0px" y="0px" width="233.4px" height="79.5px" viewBox="0 0 233.4 79.5" enable-background="new 0 0 233.4 79.5"
	 xml:space="preserve">
<defs>
</defs>
<g>
	<g>
		<path fill="#FFFFFF" d="M78,32.7c-0.3-1.8-1.8-1.8-3.1-1.2c-0.5,0.3-1.1,0.6-1.4,1.1c-0.4,0.6-0.9,1.5-0.7,2.2
			c1.5,0,3.7,0,4.9-1.1C77.9,33.5,78,33.1,78,32.7z"/>
	</g>
	<g>
		<path fill="#FFFFFF" d="M26.8,35c1.4,0.3,2.8,0.2,4.1,0.3c0.2,0,0.8,0.2,1,0.1c0.9-0.8-1-3-1.4-3.6c-0.8-1.1-2-1.9-3.3-2.2
			c-2.1-0.5-4.8,1.3-3.7,3.6C24.1,34.6,25.6,34.8,26.8,35z"/>
	</g>
	<g>
		<path fill="#FFFFFF" d="M82.5,21.9c4.8,1.4,14.3-2.4,14.3-2.4c6.4-3.4,8.2-2.4,8.2-2.4c-1.7-1.8-8.7-2.5-8.7-2.5
			C81.7,14.1,82.5,21.9,82.5,21.9z"/>
	</g>
	<g>
		<path fill="#FFFFFF" d="M104,17.7c-0.3,0.2-0.7,0.4-1.1,0.6c-0.4,0.2-0.9,0.5-1.5,0.8c-0.5,0.3-1.1,0.6-1.8,0.9
			c-0.6,0.3-1.3,0.6-2,0.9c-0.7,0.3-1.4,0.6-2.2,0.9c-0.7,0.3-1.5,0.5-2.3,0.7c-1.6,0.4-3.2,0.4-4.7,0.5c-1.5,0-3,0-4.2,0.1
			c-0.3,0-0.6,0-0.9,0.2c-0.3,0.1-0.5,0.4-0.7,0.6c-0.3,0.5-0.3,0.9-0.4,1.3c0,0.1,0,0.2,0,0.4c0-0.1,0.1-0.2,0.1-0.3
			c0.1-0.3,0.3-0.8,0.6-1.2c0.1-0.2,0.3-0.3,0.6-0.4c0.2-0.1,0.5-0.1,0.8-0.1c1.2,0,2.6,0.1,4.2,0.1c1.5,0,3.2,0,4.9-0.4
			c0.8-0.2,1.6-0.4,2.4-0.8c0.8-0.3,1.5-0.6,2.2-1c0.7-0.3,1.4-0.7,2-1c0.6-0.3,1.2-0.7,1.7-1c0.5-0.3,1-0.6,1.4-0.9
			c0.4-0.3,0.8-0.5,1.1-0.8c0.6-0.4,0.9-0.7,0.9-0.7S104.6,17.3,104,17.7z"/>
	</g>
	<g>
		<path fill="#FFFFFF" d="M82.2,26.3c0,0,0.1-0.1,0.1-0.3c0-0.1,0-0.3,0-0.5c-0.1,0.2-0.1,0.4-0.1,0.5
			C82.2,26.2,82.2,26.3,82.2,26.3z"/>
	</g>
	<g>
		<path fill="#FFFFFF" d="M20.8,22.6c0,0,0.6-8.9-12.9-8.1c0,0-6.4,0.9-7.9,3c0,0,1.6-1.2,7.6,2.6C7.6,20.1,16.4,24.3,20.8,22.6z"/>
	</g>
	<g>
		<path fill="#FFFFFF" d="M66.4,30.6c0.6-2.8,2.9-5.2,5.7-5.9c0,0,4.3-0.3,6.5,0.9c1.5,0.8,2.5-2.7,2.5-3.4c0.1-1.5-0.3-3-0.9-4.5
			c0.1-0.5,0.2-0.9,0.2-1.4c0-1.4-0.6-2.7-1.6-3.6c0.1-0.4,0.2-0.9,0.2-1.4c0-2.7-2.2-4.8-4.8-4.8c-0.1,0-0.1,0-0.2,0
			c-0.3-2.4-2.3-4.3-4.8-4.3c-1.4,0-2.7,0.6-3.6,1.6c-0.9-1-2.2-1.6-3.6-1.6c-0.3,0-0.6,0-0.9,0.1C60.2,0.9,58.7,0,57,0
			c-1.4,0-2.7,0.6-3.6,1.6c-0.9-1-2.2-1.6-3.6-1.6c-2.1,0-3.9,1.3-4.5,3.2c-0.7-1.1-2-1.7-3.3-1.7c-1.6,0-3.1,1-3.7,2.4
			c-0.8-0.9-1.9-1.4-3.2-1.4c-2.3,0-4.2,1.9-4.3,4.2C30.3,6.2,29.6,6,29,6c-1.8,0-3.2,1.4-3.2,3.2c0,0.7,0.2,1.3,0.6,1.8
			c-1.9,0.2-3.4,1.9-3.4,3.9c0,0.7,0.2,1.3,0.5,1.9c-0.7,1.3-1.2,2.8-1.5,4.4c0,0-1,2.8,3.4,2.5c4.3-0.3,10.1-0.6,12.6,3.6
			c3.5,5.9-0.8,13.5-2,19.3c-1.6,7.4-3,15.4-0.8,22.9c1.3,4.4,4,7.9,8.3,9.3c1.6,0.5,3.4,1,5,0.4c1.6-0.5,2.8-2.5,4.2-3.6l0,0
			c1-1,0.9-3.5,0.9-3.5l0,0c0-0.5-0.1-0.9-0.1-0.9c-0.3-1.9-2.6-2.5-2.8-2.5c0,0,0,0,0,0c0,0,0,0,0,0h0c-0.1,0-0.2-0.1-0.4-0.1
			c-1.5-0.5-2.9-1.5-4.1-2.5c-0.7-0.6-1.3-1.2-1.7-2c-0.4-0.8-0.9-3.9,1-3c1.2,0.6,2.1,1.8,2.9,2.8c0.7,0.8,1.3,1.7,2,2.5
			c1.6,2.1,3.5,1.9,3.5,1.9l0.3,0l0.3,0c0,0,1.9,0.2,3.5-1.9c0,0,2.3-3.1,3.7-4.5c0,0,2-1.9,2.5-0.6c0.3,0.9,0,2.1-0.4,2.8
			c-0.4,0.7-1.1,1.4-1.7,1.9c-1.2,1.1-2.6,2-4.1,2.5c-0.2,0.1-0.5,0.1-0.7,0.2h0c-1.9,0.4-2.3,2.6-2.3,2.6c-0.1,0.3-0.1,0.7-0.1,1
			c0,0.1-0.1,2,0.9,3c0.7,0.6,1.3,1.5,2,2c2,1.4,4.5,2.4,6.9,1.7c4.7-1.3,6.6-7.3,7.3-11.6C73.9,54.8,63.6,43.1,66.4,30.6z"/>
	</g>
	<g>
		<path fill="#FFFFFF" d="M89,49.9c-0.3-1-0.9-1.8-1.7-2.3c0-0.2,0-0.3,0-0.5c0-1.7-1.4-3.1-3.1-3.1c-1.7,0-3.1,1.4-3.1,3.1
			c0,0.8,0.3,1.5,0.8,2.1c-0.1,0.2-0.2,0.4-0.2,0.6c-0.9-0.8-2.2-1.2-3.5-0.9c-2,0.5-3.3,2.6-2.7,4.6c0.2,0.9,0.8,1.7,1.5,2.2
			c-0.4,0.8-0.5,1.7-0.3,2.7c0.2,0.7,0.6,1.4,1.1,1.8c-1.4,0.8-2.2,2.6-1.7,4.2c0.1,0.4,0.3,0.8,0.5,1.2c-0.9,0.5-1.3,1.6-1,2.6
			c0.1,0.3,0.2,0.6,0.4,0.8c-0.5,0.2-0.8,0.6-0.8,1.2c0,0.7,0.6,1.2,1.2,1.2c0.7,0,1.2-0.6,1.2-1.2c0-0.1,0-0.2,0-0.3
			c0.2,0,0.5,0,0.7-0.1c1.2-0.3,1.9-1.4,1.7-2.6c0.2,0,0.4,0,0.6-0.1c1.5-0.4,2.5-1.6,2.8-2.9c0,0,0.1,0,0.1,0
			c2-0.5,3.3-2.6,2.7-4.7c-0.1-0.4-0.3-0.8-0.5-1.1c2-0.5,3.2-2.6,2.7-4.6c-0.1-0.2-0.1-0.5-0.2-0.7C89,52.3,89.3,51.1,89,49.9z"/>
	</g>
	<g>
		<path fill="#FFFFFF" d="M33.6,72.7c0-1.2-1-2.3-2.2-2.3c0.1-0.4,0.2-0.8,0.2-1.2c0-2.1-1.6-3.7-3.7-3.8c-0.2-0.7-0.6-1.4-1.2-1.9
			c0.8-0.7,1.3-1.7,1.3-2.9c0-1.5-0.9-2.8-2.2-3.4c0.5-0.6,0.8-1.4,0.8-2.3c0-2.1-1.6-3.7-3.6-3.8c0.1-0.2,0.2-0.5,0.2-0.8
			c0-1.2-1-2.2-2.2-2.2c-1.2,0-2.2,1-2.2,2.2c0,0.9,0.5,1.7,1.3,2c-0.2,0.3-0.4,0.5-0.6,0.8c-0.1,0-0.1,0-0.2,0
			c-2.1,0-3.8,1.7-3.8,3.8c0,1.4,0.7,2.6,1.8,3.3c0.1,0.1,0.2,0.3,0.2,0.4c-0.4,0.6-0.7,1.3-0.7,2.1c0,2,1.6,3.7,3.6,3.8
			c0.1,2,1.7,3.5,3.7,3.6c0.4,1.6,1.9,2.9,3.7,2.9c0.4,0,0.8-0.1,1.2-0.2C29,74,30,75,31.2,75C32.5,75,33.6,74,33.6,72.7z"/>
	</g>
	<g>
		<circle fill="#FFFFFF" cx="34.1" cy="75.9" r="1.9"/>
	</g>
</g>
<g>
	<g>
		<g>
			<path fill="#FFFFFF" d="M143.1,13.1c0.8,1.1,1.2,2.3,1.2,3.8c0,1.5-0.4,2.8-1.2,3.7c-0.4,0.5-1.1,1-1.9,1.4
				c1.3,0.5,2.2,1.2,2.9,2.2c0.7,1,1,2.2,1,3.7c0,1.5-0.4,2.8-1.1,4c-0.5,0.8-1.1,1.4-1.8,2c-0.8,0.6-1.7,1-2.8,1.3
				c-1.1,0.2-2.3,0.3-3.5,0.3h-11.3V10.5h12.1C139.7,10.5,141.8,11.4,143.1,13.1z M129.5,14.8v5.5h6.1c1.1,0,2-0.2,2.7-0.6
				c0.7-0.4,1-1.1,1-2.2c0-1.2-0.4-1.9-1.3-2.3c-0.8-0.3-1.8-0.4-3-0.4H129.5z M129.5,24.5v6.7h6.1c1.1,0,1.9-0.1,2.5-0.4
				c1.1-0.5,1.7-1.6,1.7-3.1c0-1.3-0.5-2.2-1.6-2.7c-0.6-0.3-1.4-0.4-2.5-0.4H129.5z"/>
		</g>
		<g>
			<path fill="#FFFFFF" d="M144.8,10.5h5.2V31h12.5v4.5h-17.8V10.5z"/>
		</g>
		<g>
			<path fill="#FFFFFF" d="M168.6,10.5h5.9l8.9,25.1h-5.7l-1.7-5.2h-9.2l-1.7,5.2h-5.5L168.6,10.5z M168.2,26.1h6.4l-3.2-9.9
				L168.2,26.1z"/>
		</g>
		<g>
			<path fill="#FFFFFF" d="M184.2,13.1c2-2.1,4.6-3.1,7.7-3.1c4.2,0,7.2,1.4,9.2,4.2c1.1,1.6,1.6,3.1,1.7,4.7h-5.2
				c-0.3-1.2-0.8-2.1-1.3-2.7c-0.9-1.1-2.3-1.6-4.2-1.6c-1.9,0-3.3,0.8-4.4,2.3c-1.1,1.5-1.6,3.7-1.6,6.5c0,2.8,0.6,4.9,1.7,6.3
				c1.1,1.4,2.6,2.1,4.3,2.1c1.8,0,3.2-0.6,4.1-1.8c0.5-0.6,1-1.6,1.3-2.9h5.2c-0.4,2.7-1.6,5-3.4,6.7c-1.8,1.7-4.2,2.6-7.1,2.6
				c-3.6,0-6.4-1.2-8.4-3.5c-2-2.3-3.1-5.5-3.1-9.6C180.8,18.8,181.9,15.5,184.2,13.1z"/>
		</g>
		<g>
			<path fill="#FFFFFF" d="M202.4,10.5h5.2v10.3l9.7-10.3h6.8l-10.3,10.3l10.8,14.8h-6.7l-7.7-11l-2.5,2.6v8.4h-5.2V10.5z"/>
		</g>
		<g>
			<path fill="#FFFFFF" d="M125.5,55.5c0.1,1.1,0.3,2.1,0.8,2.8c0.4,0.8,0.9,1.4,1.6,1.9c0.6,0.5,1.4,0.8,2.2,1.1
				c0.8,0.2,1.7,0.3,2.7,0.3c1.1,0,2.1-0.1,2.9-0.4c0.8-0.3,1.5-0.7,2-1.1c0.5-0.5,0.9-1,1.1-1.7c0.2-0.6,0.4-1.3,0.4-2
				c0-1-0.2-1.8-0.7-2.4c-0.4-0.6-1-1.1-1.7-1.5c-0.7-0.4-1.5-0.7-2.4-0.9c-0.9-0.2-1.9-0.5-2.8-0.7c-1-0.2-1.9-0.5-2.8-0.8
				c-0.9-0.3-1.7-0.7-2.4-1.2c-0.7-0.5-1.3-1.2-1.7-2c-0.4-0.8-0.7-1.8-0.7-3.1c0-0.9,0.2-1.7,0.5-2.5c0.4-0.8,0.9-1.5,1.6-2.2
				c0.7-0.6,1.6-1.1,2.7-1.5c1.1-0.4,2.3-0.6,3.7-0.6c1.4,0,2.7,0.2,3.7,0.6c1.1,0.4,1.9,0.9,2.6,1.6c0.7,0.7,1.2,1.5,1.6,2.4
				c0.3,0.9,0.5,1.9,0.5,2.9h-2.3c0-1-0.2-1.8-0.5-2.5c-0.3-0.7-0.8-1.3-1.4-1.7c-0.6-0.4-1.2-0.8-2-1c-0.7-0.2-1.5-0.3-2.3-0.3
				c-1.2,0-2.2,0.2-3.1,0.5c-0.8,0.3-1.5,0.8-2,1.3c-0.5,0.5-0.8,1.1-1,1.8c-0.2,0.7-0.2,1.3-0.1,2c0.1,0.8,0.5,1.5,1,2
				c0.5,0.5,1.1,0.9,1.9,1.2c0.7,0.3,1.6,0.6,2.5,0.8c0.9,0.2,1.8,0.4,2.7,0.6c0.9,0.2,1.8,0.5,2.7,0.8c0.9,0.3,1.6,0.7,2.3,1.2
				c0.7,0.5,1.2,1.2,1.6,2c0.4,0.8,0.6,1.8,0.6,3c0,2.3-0.8,4.1-2.4,5.4c-1.6,1.3-3.9,1.9-6.8,1.9c-1.3,0-2.5-0.2-3.6-0.5
				c-1.1-0.3-2.1-0.8-2.9-1.5c-0.8-0.7-1.4-1.5-1.9-2.5c-0.5-1-0.7-2.2-0.7-3.6H125.5z"/>
		</g>
		<g>
			<path fill="#FFFFFF" d="M143.7,63V37.9h2.4v10.8h14.9V37.9h2.4V63h-2.4V50.7H146V63H143.7z"/>
		</g>
		<g>
			<path fill="#FFFFFF" d="M166.7,63V37.9h16.7v2h-14.3V49H182v2h-12.9v10h14.7v2H166.7z"/>
		</g>
		<g>
			<path fill="#FFFFFF" d="M186.3,63V37.9H203v2h-14.3V49h12.9v2h-12.9v10h14.7v2H186.3z"/>
		</g>
		<g>
			<path fill="#FFFFFF" d="M206.4,63V37.9h9.2c1.6,0,3,0.2,4,0.6c1.1,0.4,1.9,0.9,2.5,1.5c0.6,0.7,1,1.4,1.3,2.3
				c0.2,0.8,0.4,1.7,0.4,2.7c0,1.4-0.3,2.5-0.9,3.5c-0.6,0.9-1.3,1.6-2.2,2.1c-0.9,0.5-1.9,0.9-3.1,1.1c-1.2,0.2-2.3,0.3-3.5,0.3
				h-5.4V63H206.4z M214.2,49.9c1.1,0,2.1-0.1,3-0.2c0.9-0.1,1.6-0.4,2.3-0.8c0.6-0.4,1.1-0.9,1.4-1.6c0.3-0.7,0.5-1.5,0.5-2.6
				c0-1.6-0.5-2.8-1.6-3.6c-1-0.8-2.7-1.2-4.9-1.2h-6.1v10H214.2z"/>
		</g>
	</g>
	<g>
		<g>
			<path fill="#FFFFFF" d="M124.1,70.2l0,1.2c0.2-0.4,0.4-0.7,0.8-0.9c0.3-0.2,0.7-0.3,1.2-0.3c0.5,0,0.9,0.1,1.2,0.4
				c0.3,0.2,0.5,0.6,0.6,1.2c0.2-0.5,0.4-0.9,0.8-1.1c0.3-0.3,0.8-0.4,1.3-0.4c0.6,0,1.1,0.2,1.5,0.6c0.3,0.4,0.5,1.1,0.5,2V76h-0.3
				v-3.3c0-0.8-0.2-1.4-0.5-1.8c-0.3-0.3-0.7-0.5-1.2-0.5c-0.6,0-1,0.2-1.4,0.5c-0.3,0.3-0.5,0.8-0.6,1.4c0,0.1,0,0.1,0,0.2
				c0,0.1,0,0.1,0,0.2V76h-0.3v-3h0c0-0.1,0-0.1,0-0.2c0-0.1,0-0.1,0-0.2c0-0.8-0.2-1.4-0.5-1.7c-0.3-0.3-0.7-0.5-1.2-0.5
				c-0.6,0-1,0.2-1.3,0.5c-0.3,0.3-0.5,0.8-0.6,1.3V76h-0.3v-3h0c0,0,0-0.1,0-0.1c0,0,0-0.1,0-0.2v-2.5H124.1z"/>
		</g>
		<g>
			<path fill="#FFFFFF" d="M137.1,73h-0.8v3H136v-8.4h0.3v5.1h0.7l2.6-2.5h0.3l0,0l-2.7,2.6l2.9,3.1l0,0h-0.3L137.1,73z"/>
		</g>
		<g>
			<path fill="#FFFFFF" d="M144,68.6v1.6h1.4v0.3H144v4c0,0.5,0.1,0.8,0.2,1c0.2,0.2,0.4,0.3,0.6,0.3c0.1,0,0.2,0,0.3,0
				c0.1,0,0.2,0,0.3,0l0.1,0.3c-0.1,0-0.2,0-0.3,0.1c-0.1,0-0.2,0-0.3,0c-0.4,0-0.7-0.1-0.9-0.4c-0.2-0.3-0.3-0.7-0.3-1.2v-4h-1.1
				v-0.3h1.1v-1.6H144z"/>
		</g>
		<g>
			<path fill="#FFFFFF" d="M158.3,73.2c0,0.9-0.2,1.6-0.6,2.1c-0.4,0.5-0.9,0.8-1.6,0.8c-0.5,0-0.8-0.1-1.2-0.3
				c-0.3-0.2-0.6-0.4-0.8-0.7v3.1h-0.3v-3.8c0,0,0,0,0,0c0,0,0,0,0,0V72c0,0,0,0,0,0c0,0,0,0,0,0v-1.8h0.2l0.1,1
				c0.2-0.4,0.5-0.6,0.8-0.8c0.3-0.2,0.7-0.3,1.2-0.3c0.7,0,1.2,0.3,1.6,0.8c0.4,0.5,0.6,1.3,0.6,2.2V73.2z M158,73.1
				c0-0.8-0.2-1.5-0.5-2c-0.3-0.5-0.8-0.8-1.4-0.8c-0.6,0-1,0.1-1.3,0.4c-0.3,0.3-0.5,0.6-0.7,1v2.8c0.1,0.4,0.4,0.7,0.7,0.9
				c0.3,0.2,0.8,0.3,1.3,0.3c0.6,0,1.1-0.2,1.4-0.7c0.3-0.5,0.5-1.1,0.5-1.9V73.1z"/>
		</g>
		<g>
			<path fill="#FFFFFF" d="M164.6,70.4l-0.4,0c-0.5,0-0.9,0.2-1.3,0.5c-0.3,0.3-0.5,0.8-0.6,1.3V76h-0.3v-5.8h0.2l0.1,1v0.2
				c0.2-0.4,0.4-0.7,0.7-1c0.3-0.2,0.7-0.3,1.2-0.3c0.1,0,0.2,0,0.2,0c0.1,0,0.1,0,0.2,0L164.6,70.4z"/>
		</g>
		<g>
			<path fill="#FFFFFF" d="M167.4,73c0-0.9,0.2-1.5,0.7-2.1c0.5-0.5,1.1-0.8,1.8-0.8c0.8,0,1.4,0.3,1.8,0.8c0.5,0.5,0.7,1.2,0.7,2.1
				v0.2c0,0.9-0.2,1.6-0.7,2.1c-0.5,0.5-1.1,0.8-1.8,0.8c-0.8,0-1.4-0.3-1.8-0.8c-0.5-0.5-0.7-1.2-0.7-2.1V73z M167.7,73.2
				c0,0.7,0.2,1.3,0.6,1.9c0.4,0.5,1,0.8,1.6,0.8c0.7,0,1.2-0.3,1.6-0.8c0.4-0.5,0.6-1.1,0.6-1.8V73c0-0.7-0.2-1.3-0.6-1.8
				c-0.4-0.5-1-0.8-1.6-0.8c-0.7,0-1.2,0.3-1.6,0.8c-0.4,0.5-0.6,1.1-0.6,1.8V73.2z"/>
		</g>
		<g>
			<path fill="#FFFFFF" d="M176.3,70.2l0,1.2c0.2-0.4,0.4-0.7,0.8-0.9c0.3-0.2,0.7-0.3,1.2-0.3c0.5,0,0.9,0.1,1.2,0.4
				c0.3,0.2,0.5,0.6,0.6,1.2c0.2-0.5,0.4-0.9,0.8-1.1c0.3-0.3,0.8-0.4,1.3-0.4c0.6,0,1.1,0.2,1.5,0.6c0.3,0.4,0.5,1.1,0.5,2V76h-0.3
				v-3.3c0-0.8-0.2-1.4-0.5-1.8c-0.3-0.3-0.7-0.5-1.2-0.5c-0.6,0-1.1,0.2-1.4,0.5c-0.3,0.3-0.5,0.8-0.6,1.4c0,0.1,0,0.1,0,0.2
				c0,0.1,0,0.1,0,0.2V76h-0.3v-3h0c0-0.1,0-0.1,0-0.2c0-0.1,0-0.1,0-0.2c0-0.8-0.2-1.4-0.5-1.7c-0.3-0.3-0.7-0.5-1.2-0.5
				c-0.6,0-1,0.2-1.3,0.5c-0.3,0.3-0.5,0.8-0.6,1.3V76H176v-3h0c0,0,0-0.1,0-0.1c0,0,0-0.1,0-0.2v-2.5H176.3z"/>
		</g>
		<g>
			<path fill="#FFFFFF" d="M187.7,73c0-0.9,0.2-1.5,0.7-2.1c0.5-0.5,1.1-0.8,1.8-0.8c0.8,0,1.4,0.3,1.8,0.8c0.5,0.5,0.7,1.2,0.7,2.1
				v0.2c0,0.9-0.2,1.6-0.7,2.1c-0.5,0.5-1.1,0.8-1.8,0.8c-0.8,0-1.4-0.3-1.8-0.8c-0.5-0.5-0.7-1.2-0.7-2.1V73z M188,73.2
				c0,0.7,0.2,1.3,0.6,1.9c0.4,0.5,1,0.8,1.6,0.8c0.7,0,1.2-0.3,1.6-0.8c0.4-0.5,0.6-1.1,0.6-1.8V73c0-0.7-0.2-1.3-0.6-1.8
				c-0.4-0.5-1-0.8-1.6-0.8c-0.7,0-1.2,0.3-1.6,0.8c-0.4,0.5-0.6,1.1-0.6,1.8V73.2z"/>
		</g>
		<g>
			<path fill="#FFFFFF" d="M198.3,75.8c0.5,0,0.9-0.1,1.3-0.4c0.4-0.3,0.6-0.7,0.6-1.2h0.2l0,0c0,0.6-0.2,1-0.6,1.4
				c-0.4,0.3-0.9,0.5-1.5,0.5c-0.7,0-1.3-0.3-1.7-0.8c-0.4-0.5-0.6-1.2-0.6-2.1V73c0-0.9,0.2-1.6,0.6-2.1c0.4-0.5,1-0.8,1.7-0.8
				c0.6,0,1.1,0.2,1.5,0.5c0.4,0.4,0.6,0.8,0.6,1.5l0,0h-0.2c0-0.6-0.2-1-0.5-1.3c-0.4-0.3-0.8-0.5-1.3-0.5c-0.7,0-1.2,0.2-1.5,0.7
				c-0.3,0.5-0.5,1.1-0.5,1.9v0.2c0,0.8,0.2,1.4,0.5,1.9C197.1,75.5,197.6,75.8,198.3,75.8z"/>
		</g>
		<g>
			<path fill="#FFFFFF" d="M204.5,68.3h-0.3v-0.7h0.3V68.3z M204.5,76h-0.3v-5.8h0.3V76z"/>
		</g>
		<g>
			<path fill="#FFFFFF" d="M208.2,73c0-0.9,0.2-1.5,0.7-2.1c0.5-0.5,1.1-0.8,1.8-0.8c0.8,0,1.4,0.3,1.8,0.8c0.5,0.5,0.7,1.2,0.7,2.1
				v0.2c0,0.9-0.2,1.6-0.7,2.1c-0.5,0.5-1.1,0.8-1.8,0.8c-0.8,0-1.4-0.3-1.8-0.8c-0.5-0.5-0.7-1.2-0.7-2.1V73z M208.5,73.2
				c0,0.7,0.2,1.3,0.6,1.9c0.4,0.5,1,0.8,1.6,0.8c0.7,0,1.2-0.3,1.6-0.8c0.4-0.5,0.6-1.1,0.6-1.8V73c0-0.7-0.2-1.3-0.6-1.8
				c-0.4-0.5-1-0.8-1.6-0.8c-0.7,0-1.2,0.3-1.6,0.8c-0.4,0.5-0.6,1.1-0.6,1.8V73.2z"/>
		</g>
		<g>
			<path fill="#FFFFFF" d="M217.1,70.2l0,1.2c0.2-0.4,0.4-0.7,0.8-0.9c0.3-0.2,0.7-0.3,1.2-0.3c0.6,0,1.1,0.2,1.4,0.6
				c0.3,0.4,0.5,1,0.5,1.9V76h-0.3v-3.4c0-0.8-0.1-1.4-0.4-1.7c-0.3-0.3-0.7-0.5-1.2-0.5c-0.6,0-1.1,0.2-1.4,0.5
				c-0.3,0.4-0.5,0.8-0.6,1.4V76h-0.3v-3h0c0-0.1,0-0.1,0-0.2c0-0.1,0-0.1,0-0.2v-2.4H217.1z"/>
		</g>
		<g>
			<path fill="#FFFFFF" d="M228.7,74.9c-0.2,0.4-0.5,0.6-0.9,0.9c-0.4,0.2-0.9,0.3-1.4,0.3c-0.5,0-1-0.1-1.3-0.4
				c-0.3-0.3-0.5-0.7-0.5-1.2c0-0.5,0.2-0.9,0.7-1.2c0.5-0.3,1-0.5,1.7-0.5h1.7v-0.8c0-0.5-0.2-0.9-0.5-1.1
				c-0.3-0.3-0.7-0.4-1.3-0.4c-0.5,0-0.9,0.1-1.3,0.4c-0.3,0.3-0.5,0.6-0.5,1l-0.2,0l0,0c0-0.5,0.2-0.8,0.5-1.1
				c0.4-0.3,0.9-0.5,1.5-0.5c0.6,0,1.1,0.2,1.5,0.5c0.4,0.3,0.6,0.8,0.6,1.4v2.9c0,0.2,0,0.4,0,0.6c0,0.2,0.1,0.4,0.1,0.6h-0.3
				c0-0.3-0.1-0.4-0.1-0.6C228.7,75.3,228.7,75.1,228.7,74.9L228.7,74.9z M226.4,75.8c0.6,0,1.1-0.1,1.5-0.4
				c0.4-0.3,0.7-0.6,0.9-1.1V73h-1.6c-0.6,0-1.1,0.1-1.5,0.4c-0.4,0.3-0.6,0.6-0.6,1c0,0.4,0.1,0.7,0.4,1
				C225.6,75.7,225.9,75.8,226.4,75.8z"/>
		</g>
		<g>
			<path fill="#FFFFFF" d="M233.4,76h-0.3v-8.4h0.3V76z"/>
		</g>
	</g>
	<g>
		<rect x="117" y="9.6" fill="#FFFFFF" width="1" height="55"/>
	</g>
</g>
</svg>
