<!-- Generator: Adobe Illustrator 18.0.0, SVG Export Plug-In  -->
<svg version="1.1"
	 xmlns="http://www.w3.org/2000/svg" xmlns:xlink="http://www.w3.org/1999/xlink" xmlns:a="http://ns.adobe.com/AdobeSVGViewerExtensions/3.0/"
	 x="0px" y="0px" width="64.5px" height="89.9px" viewBox="0 0 64.5 89.9" enable-background="new 0 0 64.5 89.9"
	 xml:space="preserve">
<defs>
</defs>
<g>
	<path d="M60.4,7h-0.7l-2.6-4.3C56.1,1,54.3,0,52.4,0H12.1c-1.9,0-3.8,1-4.7,2.7L4.8,7H4.1C1.9,7,0,8.9,0,11.2s1.9,4.1,4.1,4.1h0.2
		L9.7,86c0.2,2.1,2,3.8,4.1,3.8h37c2.1,0,4-1.7,4.1-3.8l5.3-70.7h0.2c2.3,0,4.1-1.9,4.1-4.1S62.7,7,60.4,7z M9.7,4
		c0.5-0.9,1.5-1.4,2.5-1.4h40.2c1,0,2,0.5,2.5,1.4l1.8,3H7.9L9.7,4z M56.8,25.3h-7.7c-0.7,0-1.3,0.6-1.3,1.3c0,0.7,0.6,1.3,1.3,1.3
		h7.5l-3.4,45.2h-6.9c-0.7,0-1.3,0.6-1.3,1.3c0,0.7,0.6,1.3,1.3,1.3H53l-0.8,10c-0.1,0.8-0.7,1.4-1.5,1.4h-37
		c-0.8,0-1.4-0.6-1.5-1.4l-0.8-10h29.2c0.7,0,1.3-0.6,1.3-1.3c0-0.7-0.6-1.3-1.3-1.3H11.3L7.9,28h35.6c0.7,0,1.3-0.6,1.3-1.3
		c0-0.7-0.6-1.3-1.3-1.3H7.7L7,15.3h50.6L56.8,25.3z M60.4,12.7H59H5.5H4.1c-0.8,0-1.5-0.7-1.5-1.5s0.7-1.5,1.5-1.5H59c0,0,0,0,0,0
		h0h1.4c0.8,0,1.5,0.7,1.5,1.5S61.2,12.7,60.4,12.7z"/>
	<path d="M41.5,44c-0.6,0.4-0.9,1.2-0.5,1.8c0.8,1.5,1.2,3.1,1.2,4.8c0,5.5-4.5,9.9-9.9,9.9c-5.5,0-9.9-4.5-9.9-9.9
		c0-5.5,4.5-9.9,9.9-9.9c1.7,0,3.5,0.5,5,1.3c0.6,0.4,1.4,0.1,1.8-0.5c0.4-0.6,0.2-1.4-0.5-1.8c-1.9-1.1-4.1-1.7-6.3-1.7
		c-6.9,0-12.6,5.6-12.6,12.6s5.6,12.6,12.6,12.6c6.9,0,12.6-5.6,12.6-12.6c0-2.1-0.5-4.2-1.6-6.1C42.9,43.8,42.1,43.6,41.5,44
		L41.5,44z"/>
</g>
</svg>
