<!-- Generator: Adobe Illustrator 19.0.0, SVG Export Plug-In  -->
<svg version="1.1"
	 xmlns="http://www.w3.org/2000/svg" xmlns:xlink="http://www.w3.org/1999/xlink" xmlns:a="http://ns.adobe.com/AdobeSVGViewerExtensions/3.0/"
	 x="0px" y="0px" width="355.1px" height="156.7px" viewBox="0 0 355.1 156.7" style="enable-background:new 0 0 355.1 156.7;"
	 xml:space="preserve">
<style type="text/css">
	.st0{fill-rule:evenodd;clip-rule:evenodd;fill:#FFFFFF;}
</style>
<defs>
</defs>
<path class="st0" d="M108.9,151.4v-2l1,0l1.1,0l0.9,0c0,0,0.3,0.8,0.3,0.8c2.1,5.4,10.1,7.1,15,6.6c4.7-0.5,9.3-2.4,13.6-4.3
	c3.1-1.4,6.2-3,9.2-4.6l2.4-1.3l2.5-1.4c0,0,1.3-0.8,1.3-0.8c1.8-0.8,3.7-0.1,5.6,0.2c4.8,0.8,9.7-0.2,14.2-1.9
	c1.1-0.4,12.5-5.5,12.2-6.7c0.5,1.9,0.4,3.9,1.1,5.8c4.5,12.6,19.7,15,31,10.9c4.6-1.7,9-3.7,13-6.4c0.6-0.4,7.1-4.9,6.7-5.3
	c1.7,1.5,3.5,2.9,5.2,4.4c15.5,13.8,36.2,8.2,52.2-1.2c5-2.9,9.7-6.2,14.5-9.5c3.6-2.4,7.1-4.9,10.7-7.2c0.3-0.2,3.3-2.5,3.6-2.4
	l-37.8-18.4l1-1l26.6-2.6l39-47.3l-23.5-0.4l14.8-20.3l-60.7,2.4l-14.2,19.7l-9.3-0.6c0,0-2-4.6-8.1-6.4c-6.1-1.9-14.2,1.8-14.2,1.8
	c-0.5,0.2-3.2-2.7-3.6-3c-1.6-1.2-3.3-1.9-5.2-2.3c-4.1-0.8-8.6-0.1-12.5,1.1c-2.2,0.6-4.2,1.5-6.3,2.5l-1.4,0.8l-1.4,0.8l-1.5,0.9
	l-1.5,1l-1.5,1.1l-1.5,1.2l-1.5,1.2l-1.5,1.3l-1.5,1.5l-1.6,1.5l-1.1-0.5l-1.2-0.5l-1.2-0.4l-1.2-0.4l-1.2-0.4l-1.2-0.3l-1.2-0.3
	l-1.3-0.2l-1.3-0.1l-1.3-0.1l-1.3,0l-1.4,0l-2.1,0l-2.1,0.2l-2.1,0.3l-2.1,0.4l-2,0.5l-2,0.6l-2,0.6l-2,0.8l-2,0.8l-1.9,0.9l-1.9,1
	l-0.4,0.3l0.4-0.9l1.3-3l1.4-2.9l1.4-3l1.4-3l1.5-3l1.5-3l1.5-3l1.6-3l1.6-3L192.8,0L90.5,57.1l-2,44l-2.3-0.4l-2.5-0.1l-2.4,0.2
	l-2.4,0.4l-2.2,0.7l-2.1,0.8l-2,1l-1.9,1.1l-1.9,1.2l-1.7,1.4l-1.6,1.5l-1.6,1.6l-1.2,1.4l-0.1-0.1l-2-1.1l-2.1-0.9l-2.2-0.6
	l-2.3-0.4l-2.3-0.1l-2.3,0.1l-2.2,0.4l-2.1,0.5l-2,0.8l-1,0.4l-1.7-1.2l-2.4-1.2l-2.4-0.8l-2.4-0.4l-2.3-0.1l-2.3,0.1l-2.2,0.4
	l-2.1,0.4l-2,0.6l-1.9,0.8l-1.8,0.8l-1.8,1l-1.7,1.1l-1.7,1.1l-1.6,1.2l-1.6,1.3l-1.5,1.4l-1.4,1.5l-1.3,1.6l-1.2,1.7l-1.2,1.8
	l-1,1.9l-0.9,2l-0.7,2.1l-0.5,2.1l-0.3,2.3l0,2.4l0.1,0.6l-0.2,0l0.2,0l0.2,1.8l0.7,2.5l1.2,2.4l1.5,2.3l1.9,1.9l2.2,1.6l2.3,1.2
	l2.4,0.8l2.4,0.4l2.3,0.1l2.3-0.1l2.1-0.3l2.1-0.5l2-0.6l1.9-0.8l1.8-0.8l1.8-0.9l1.7-1l0.6,0.7l1.7,1.5l1.9,1.3l2,1.1l2.1,0.8
	l2.2,0.6l2.3,0.4l2.3,0.1l2.3-0.1l2.2-0.4l2.1-0.6l2-0.7l1.9-0.9l1.8-1l1.7-1.2l1.6-1.3l0.6-0.5l1.3,0.8l2.4,1.1l2.5,0.7l2.5,0.4
	l2.6,0.1l2.4-0.2l2.3-0.4l2.3-0.6l1.8-0.7l1.7,0.1l-0.1,1.9L108.9,151.4z M35,129.9c-3.7,6.3-11.5,11.4-17.5,11.4
	c-6,0-7.8-5.1-4.2-11.4c3.7-6.3,11.5-11.4,17.5-11.4C36.7,118.6,38.6,123.7,35,129.9z M60.7,131.4c-1,6.3-6.6,11.4-12.6,11.4
	c-5.9,0-10.1-5.1-9.1-11.4c1-6.3,6.6-11.4,12.6-11.4C57.5,120,61.7,125.1,60.7,131.4z M180.2,69.4c0.8,0,1.5-0.1,2.3-0.1
	c10.2,0,17.3,5.5,20,13.8l-1.8,1.8l-2.2,2.1l-1.2,1.1c-0.6-2.1-1.6-3.7-2.6-4.9c-2.3-2.7-7.7-5-14.6-4.6c-7.4,0.4-16.5,4-25.5,13.8
	c11.8-7.7,20-7.9,25.5-5.7c2.6,1,4.6,2.5,6.2,4c1.3,1.2,2.3,2.8,2.8,4.8l-1.4,1.2l-1.9,1.7l-1.8,1.6l-1.6,1.4l-1.5,1.2l-0.8,0.7
	l-0.4,0.4l-1,0.8l-1.1,0.8l-1.3,1.1l-1.6,1.2l-1.8,1.3l-2,1.4l-2.1,1.6l-2.2,1.6l-2.4,1.7l-2.4,1.7l-2.5,1.7l-2.5,1.7l-2.5,1.7
	l-2.5,1.6l-2.4,1.6l-2.4,1.5l-0.9,0.7c-3.5-3.7-5.3-8.9-5.3-14.9v-0.7c0-3.2,0.4-6.7,1.6-10.3C148,84.5,164.4,70.7,180.2,69.4z
	 M91.2,126.6c-3,7.5-10.6,13.1-17,12.5c-6.4-0.6-9.1-7.2-6.1-14.6c3-7.5,10.6-13,17-12.5C91.5,112.6,94.2,119.2,91.2,126.6z
	 M121.3,134.8l-0.4,0.9l-0.4,0.9l0.1,0.9c-7.7,0.4-21.8,1.2-21.8,1.2v0c-1,0-0.5,0-0.5,0l3.2-74.9l63.5-35.5
	c-17.4,32.5-30.6,64.9-37.7,97.4l-0.2,0.1l-0.9,1l-0.8,1l-0.8,1l-0.7,1l-0.7,1l-0.6,1l-0.6,1l-0.5,1L121.3,134.8z M122,144.4
	c-1.1-2,2.7-17.3,16.9-23.3c-25.2,35.5,30.8-6.1,41.6-14.4c9.8-7.6,63.4-55.4,21-32.9c14.9-17.9,25.6-16.3,28.1-15.7
	c7.6,1.6-19.3,33.8-43.4,52.4C157.7,132.4,125.4,150.4,122,144.4z M180.2,127.7c-5.9,3.5-12.5,5.7-18.8,5.7c-1.1,0-2.1-0.1-3.1-0.2
	l2.5-1.6l2.7-1.7l2.7-1.8l2.7-1.8l2.8-1.9l2.7-1.9l2.8-1.9l2.7-2l0.5-0.3l2.3-1.7l2.7-2l2.3-1.7c-0.8,2.4-1.7,4.9-2.8,7.6
	c4.6-4.8,7.8-9.3,9.9-13.4l0.2-0.2l2.3-2l2.3-2l2.3-2.1l0.4-0.4c-0.1,0.3-0.2,0.6-0.3,0.9C198.2,112.2,189.9,121.9,180.2,127.7z
	 M247.7,104.4c-0.9,6.8-4.8,12.7-8.4,18.3c-5.8,9.2-14.1,17.4-25.1,19.8c-2.5,0.5-6,0.9-8.6,0c-6.1-2.2-7.5-10.3-7.3-15.9
	c0.1-3.8,1.2-7.4,2.6-10.9c0.3-0.8,2.6-8,3.6-8h13.3c0.3,3,0.2,7.7,2.5,9.5c5.2,4.3,11.5-0.7,14.4-5.2c1.2-1.8,2.1-3.4,2.3-5.6
	c0.1-0.7,0.4-4.8-1-4.8h-4.9c-5,0-10-0.1-15-0.6c-5.6-0.5-2.8-8-0.8-11l8.3-11.3c1.8-2.1,4.7-5.6,6.5-7.7c3.4-4.1,6.3-6,11.1-8
	c4.2-1.7,10.8-1.4,13.8,2.5c3.5,4.5,0.9,12-1.7,16.3l-2.9,4.7c0,0-18.3,0-18.3,0c0,0,4.9-5.7,5.6-6.8c0.9-1.5,3.1-5.4,0.6-6.7
	c-2.5-1.3-7.5,4.8-8.7,6.3c-1.7,2.2-6.8,8.2-5.7,11.2c2.9,8.5,16.9-1.8,21.7,4.5C247.7,97.8,248.1,101.1,247.7,104.4z M303.6,126.5
	c-3,1.9-8.5,5.6-10.2,6.7c-7.8,5-11.5,7.2-19.4,8.3c-5.5,0.7-11.4,1.2-16.7-1.1c-4.9-2.2-7.6-7-7.4-12.2c0.3-6.6,3.9-11.6,6.7-17.3
	c2.2-4.5,6.2-9.5,9.4-13.6c-3.4-0.1-6.2-0.2-10.3-0.1c-1.7,0.1-4.7-0.3-4.7-0.3s2.5-7.3,3.4-9.7c1.3-3.8,2.3-6.2,3.6-9.5
	c1.2-3,2.7-7.5,3.5-9.9c3.1,0.1,6.2,0.5,9.1,0.7c0.6,0,5.8,0.8,6.1,0.3c0,0,13.8-19.3,13.8-19.3l26.7,4.1l-13.8,17.9h19.2l-13.3,21
	L284.4,95c-5.6,5.6-14.3,12.6-13.6,21.4c0.4,5.2,5.3,5.7,9.3,3.9c0.8-0.3,4.6-3,5.2-2.7C285.3,117.7,303.6,126.5,303.6,126.5z"/>
</svg>
