<!-- Generator: Adobe Illustrator 18.0.0, SVG Export Plug-In  -->
<svg version="1.1"
	 xmlns="http://www.w3.org/2000/svg" xmlns:xlink="http://www.w3.org/1999/xlink" xmlns:a="http://ns.adobe.com/AdobeSVGViewerExtensions/3.0/"
	 x="0px" y="0px" width="92px" height="92px" viewBox="0 0 92 92" enable-background="new 0 0 92 92" xml:space="preserve">
<defs>
</defs>
<g>
	<path d="M65.3,0H26.7c-3.7,0-6.8,3-6.8,6.8v78.5c0,3.7,3,6.8,6.8,6.8h38.6c3.7,0,6.8-3,6.8-6.8V6.8C72.1,3,69,0,65.3,0z M23,12.3
		h46v58.3H23V12.3z M26.7,3.1h38.6c2,0,3.7,1.7,3.7,3.7v2.4H23V6.8C23,4.7,24.7,3.1,26.7,3.1z M65.3,88.9H26.7c-2,0-3.7-1.7-3.7-3.7
		V73.6h46v11.6C69,87.3,67.4,88.9,65.3,88.9z"/>
	<path d="M46,75.1c-3.4,0-6.1,2.8-6.1,6.1c0,3.4,2.8,6.1,6.1,6.1s6.1-2.8,6.1-6.1C52.1,77.9,49.4,75.1,46,75.1z M46,84.3
		c-1.7,0-3.1-1.4-3.1-3.1c0-1.7,1.4-3.1,3.1-3.1c1.7,0,3.1,1.4,3.1,3.1C49.1,83,47.7,84.3,46,84.3z"/>
	<path d="M39.9,7.7H46c0.8,0,1.5-0.7,1.5-1.5c0-0.8-0.7-1.5-1.5-1.5h-6.1c-0.8,0-1.5,0.7-1.5,1.5C38.3,7,39,7.7,39.9,7.7z"/>
	<path d="M50.6,7.7h1.5c0.8,0,1.5-0.7,1.5-1.5c0-0.8-0.7-1.5-1.5-1.5h-1.5c-0.8,0-1.5,0.7-1.5,1.5C49.1,7,49.8,7.7,50.6,7.7z"/>
	<path d="M86.8,7c-0.6-0.6-1.6-0.6-2.2,0c-0.6,0.6-0.6,1.6,0,2.2c5.7,5.7,5.7,15.1,0,20.8c-0.6,0.6-0.6,1.6,0,2.2
		c0.3,0.3,0.7,0.4,1.1,0.4c0.4,0,0.8-0.1,1.1-0.4C93.7,25.2,93.7,13.9,86.8,7z"/>
	<path d="M80.4,10.5c-0.6-0.6-1.6-0.6-2.2,0c-0.6,0.6-0.6,1.6,0,2.2c1.9,1.9,2.9,4.4,2.9,7.1c0,2.7-1,5.2-2.9,7.1
		c-0.6,0.6-0.6,1.6,0,2.2c0.3,0.3,0.7,0.4,1.1,0.4s0.8-0.2,1.1-0.4c2.5-2.5,3.8-5.8,3.8-9.3C84.2,16.3,82.8,13,80.4,10.5z"/>
	<path d="M7.4,9.2C8,8.6,8,7.6,7.4,7C6.8,6.4,5.8,6.4,5.2,7c-6.9,6.9-6.9,18.2,0,25.1c0.3,0.3,0.7,0.4,1.1,0.4
		c0.4,0,0.8-0.1,1.1-0.4C8,31.5,8,30.6,7.4,30C1.6,24.2,1.6,14.9,7.4,9.2z"/>
	<path d="M13.8,10.1c-0.6-0.6-1.6-0.6-2.2,0c-2.5,2.5-3.8,5.8-3.8,9.3s1.4,6.8,3.8,9.3c0.3,0.3,0.7,0.4,1.1,0.4
		c0.4,0,0.8-0.2,1.1-0.4c0.6-0.6,0.6-1.6,0-2.2c-1.9-1.9-2.9-4.4-2.9-7.1c0-2.7,1-5.2,2.9-7.1C14.4,11.6,14.4,10.7,13.8,10.1z"/>
</g>
</svg>
