<!-- Generator: Adobe Illustrator 19.0.0, SVG Export Plug-In  -->
<svg version="1.1"
	 xmlns="http://www.w3.org/2000/svg" xmlns:xlink="http://www.w3.org/1999/xlink" xmlns:a="http://ns.adobe.com/AdobeSVGViewerExtensions/3.0/"
	 x="0px" y="0px" width="517px" height="93.5px" viewBox="0 0 517 93.5" style="enable-background:new 0 0 517 93.5;"
	 xml:space="preserve">
<style type="text/css">
	.st0{fill-rule:evenodd;clip-rule:evenodd;fill:#FFFFFF;}
</style>
<defs>
</defs>
<g>
	<path class="st0" d="M371.6,25c4.6,0,8.9,0,13.3,0c0,2.3,0,4.5,0,6.7c0.1,0,0.2,0.1,0.3,0.1c0.2-0.3,0.5-0.6,0.7-1
		c3.6-4.8,8.4-7.2,14.4-7.3c2,0,4.1,0.1,6,0.5c6.9,1.3,10.8,5.3,12.2,12.2c0.2,1.1,0.4,2.2,0.6,3.7c2.7-7.9,7.3-13.7,15.4-15.7
		c8-1.9,15.1-0.4,20.8,6.5c0-8.5,0-16.7,0-25c4.8,0,9.3,0,14,0c0,6.4,0,12.7,0,19.2c3,0,5.9,0.1,8.7,0c1.4-0.1,1.9,0.3,2.4,1.7
		c3.4,10.4,6.8,20.8,10.2,31.1c0.2,0.6,0.4,1.2,0.7,2c1.5-4.6,2.8-8.8,4.2-13.1c2.2-6.8,4.4-13.6,6.5-20.4c0.3-0.9,0.7-1.3,1.7-1.2
		c4,0.1,7.9,0,11.9,0c0.4,0,0.8,0,1.3,0.1c-1.1,3.1-2.2,6.1-3.3,9.1c-5.9,16-11.9,32-17.8,47.9c-1.6,4.4-4,8.1-8.6,10
		c-3.5,1.4-7.1,1.5-10.8,1.4c-1.9-0.1-3.8-0.2-5.7-0.4c-0.3,0-0.9-0.5-0.9-0.8c-0.1-3.5,0-7.1,0-10.8c2,0.1,3.9,0.2,5.8,0.4
		c6.5,0.8,8.8-4.6,7.2-9c-4.3-11.7-8.8-23.4-13.2-35.1c0-0.1-0.1-0.1-0.3-0.4c0,12.8,0,25.4,0,38.1c-4.5,0-8.8,0-13.2,0
		c0-2,0-4,0-6.2c-0.4,0.4-0.6,0.6-0.7,0.8c-3,4.3-7.3,6.4-12.3,6.8c-11.3,0.9-19.2-4.3-23.2-14.9c-0.1-0.2-0.2-0.5-0.6-0.7
		c0,4.7,0,9.5,0,14.3c-4.8,0-9.3,0-14,0c0-0.6,0-1.1,0-1.6c0-9.4,0-18.8-0.1-28.2c0-1.5-0.2-3-0.5-4.4c-1-4.6-4.2-6.9-8.9-6.6
		c-6.3,0.4-9.6,3.7-9.9,10.6c-0.3,5.8-0.2,11.7-0.3,17.6c0,4.2,0,8.4,0,12.8c-0.5,0-0.9,0-1.4,0c-8.4,0-16.8,0-25.1,0
		c-1,0-1.6-0.2-1.7-1.3c-0.1-1.1-0.4-2.1-0.7-3.2c-0.2,0.1-0.3,0.2-0.5,0.3c-7.1,5.9-15.2,6.8-23.8,4.5c-4.7-1.3-7-3.8-9.4-8.9
		c-6.5,9.1-15.7,11.2-25.9,9.6c-10.7-1.7-17.2-8.4-20.1-18.7c0,5.9,0,11.8,0,17.8c-4.7,0-9.3,0-13.9,0c0-23.3,0-46.5,0-69.9
		c4.6,0,9.2,0,13.9,0c0,12.7,0,25.4,0,38c0,0,0.1,0,0.1,0c0.4-1.4,0.8-2.8,1.3-4.2c3.6-9.9,12.1-15.8,22.9-16
		c3.8-0.1,7.5,0.3,11,1.6c5.5,1.9,9.7,5.2,12.1,10.4c1.2-1.8,2.3-3.8,3.7-5.4c3-3.3,6.9-4.9,11.2-5.7c6.8-1.3,13.5-1.2,20.2,0.7
		c4.4,1.2,8.1,3.6,9.6,8.2c0.5,1.6,0.7,3.4,0.7,5.2c0.1,9.1,0,18.1,0.1,27.2c0,2.4,0.4,4.7,0.7,7.1c0,0.4,0.2,0.8,0.6,1.2
		C371.6,57.7,371.6,41.4,371.6,25z M312.8,42.8c-0.6-2.9-1.6-5.3-4-6.9c-4.6-3.2-11.5-2-14.7,2.6c-2,2.8-2.9,6.1-3.2,9.5
		c-0.4,4.8,0,9.4,2.5,13.6c2.1,3.5,5.3,5.1,9.4,5c4.4-0.2,7.6-2.1,9.3-6.2c0.5-1.3,0.9-2.6,1.3-4c2.9,0,5.9,0,8.9,0
		c0.5,0,1.2-0.3,1.3-0.7c1.7-3.9,4.8-6.3,8.8-7.4c3.8-1,7.8-1.5,11.8-2.3c2.9-0.5,5.8-1,8.6-1.7c1.5-0.3,2.7-1.3,3.2-2.9
		c1.2-3.3-0.7-7.1-4.2-7.8c-2.1-0.4-4.4-0.5-6.6-0.3c-4,0.3-6.3,2.5-7,6.5c-0.2,0.9-0.5,1.1-1.3,1.1c-3.1,0-6.1,0-9.2,0
		c-0.5,0-1,0-1.4,0c0,0.8,0.1,1.4,0.1,2.1C321.9,42.8,317.4,42.8,312.8,42.8z M455.9,50.6c0-3.8-0.4-7.1-1.8-10.1
		c-1.7-3.7-4.6-5.9-8.7-6.3c-4.5-0.4-8.3,0.9-10.8,4.9c-1.9,2.9-2.5,6.2-2.7,9.6c-0.2,4.7,0.5,9.2,3.3,13.2
		c4.4,6.5,15.5,6.1,18.9-1.6C455.4,57.1,455.9,53.7,455.9,50.6z M356,51.5c-2,0.5-4.1,1.1-6.2,1.5c-1.4,0.3-2.8,0.3-4.1,0.6
		c-2.2,0.6-4.4,1.1-6.3,2.1c-2.6,1.4-3.1,4-2.7,6.8c0.4,2.6,2.1,4.1,4.5,4.6c1.5,0.3,3,0.5,4.5,0.4c5.9-0.2,9.4-3.1,10.2-8.6
		C356.3,56.5,356,53.9,356,51.5z"/>
	<path class="st0" d="M153.5,47.4c0-13.9,0-27.7,0-41.7c4.7,0,9.2,0,13.9,0c0,12.3,0,24.6,0,36.9c0.1,0.1,0.2,0.1,0.3,0.2
		c1.2-1.2,2.4-2.4,3.6-3.7c4.2-4.4,8.5-8.9,12.7-13.2c0.4-0.5,1.2-0.9,1.8-0.9c8.6-0.1,17.2,0,25.8,0c0.3,0,0.5,0,1,0.1
		c0,0.6,0,1.1,0,1.6c0,9.2-0.1,18.4,0,27.6c0,2.2,0.4,4.4,1,6.5c0.9,3.3,3.3,5,6.6,5.2c1.4,0.1,2.8,0.1,4.2-0.2
		c4.1-0.8,6.5-3.5,7.3-8.2c0.3-1.9,0.5-3.8,0.5-5.8c0.1-8.3,0-16.7,0-25c0-0.5,0-1.1,0-1.7c4.7,0,9.2,0,13.9,0c0,16.8,0,33.6,0,50.5
		c-4.4,0-8.7,0-13.2,0c0-2.2,0-4.4,0-6.8c-1.3,1.4-2.4,2.8-3.6,3.9c-4.7,4.1-10.3,5-16.3,4.2c-3.5-0.5-6.7-1.5-9.3-4
		c-2.9-2.8-4.1-6.3-4.6-10.1c-0.3-2.3-0.4-4.6-0.4-6.9c0-8.7,0-17.4,0-26.1c0-0.5,0-1,0-1.9c-1.8,1.8-3.4,3.3-5,4.8
		c-3.5,3.4-6.9,6.7-10.4,10.1c-0.8,0.7-0.7,1.2-0.2,2c6.5,9.8,13.1,19.6,19.6,29.5c0.3,0.4,0.5,0.8,0.9,1.4c-0.7,0-1.1,0.1-1.5,0.1
		c-4.7,0-9.5,0-14.2,0c-1,0-1.4-0.4-1.9-1.1c-4.1-6.7-8.2-13.4-12.3-20c-0.3-0.5-0.6-0.9-0.9-1.5c-1.7,1.7-3.4,3.2-5,4.9
		c-0.3,0.3-0.4,1-0.4,1.5c0,4.9,0,9.7,0,14.6c0,0.5,0,1,0,1.6c-4.7,0-9.2,0-14,0c0-4.4,0-8.8,0-13c-1.5,2.2-2.9,4.6-4.7,6.6
		c-3.8,4.2-8.9,6.3-14.4,7.3c-8.3,1.5-16.4,1.3-24.3-2c-8.4-3.5-13.5-9.7-14.5-19c-0.1-1,0-2,0-3c4.9,0,9.8,0,14.7,0
		c0.1,1,0.2,2.1,0.4,3.1c1,4.7,4.1,7.5,8.5,8.9c4.6,1.4,9.3,1.3,14-0.2c1.2-0.4,2.4-1,3.4-1.8c4-3.2,3.7-8.7-0.6-11.6
		c-3.1-2.1-6.7-2.9-10.3-3.9c-4.8-1.3-9.6-2.6-14.4-4.1c-3.1-1-5.9-2.6-8.3-4.7c-4.8-4.4-5.9-9.9-5.1-16c0.8-6.1,4.1-10.7,9.4-13.6
		c11.8-6.4,23.8-6.1,35.4,0.4c6.6,3.7,9.2,10.1,9.2,17.7c-5,0-9.9,0-14.9,0c-0.1-0.6-0.2-1.1-0.3-1.7c-0.6-3.9-2.8-6.6-6.6-7.8
		c-3.8-1.2-7.7-1.4-11.6-0.3c-3.6,1-5.7,3.5-5.9,6.6c-0.2,3,0.7,4.9,3.5,6c3.3,1.3,6.7,2.3,10.1,3.3c4.3,1.3,8.7,2.2,13,3.6
		c4.6,1.4,8.7,3.8,11.6,7.8c0.8,1.1,1.5,2.4,2.2,3.6C153.3,47.5,153.4,47.5,153.5,47.4z"/>
	<path class="st0" d="M37.4,0c3.6,0.5,7.2,1,10.8,1.5c0.7,0.1,1.4,0.4,2.1,0.6c5.4,2,7.5,5.7,6.4,11.3c-0.6,2.9-1.3,5.7-2.1,8.5
		c-1.1,3.8,0.1,6.8,3,9.2c2.1,1.7,4.3,3.3,6.2,5.2c5.1,5.3,6.3,14.2,3,21c-2.6,5.4-6.7,9.7-11.4,13.3c-3.6,2.8-7.4,5.3-11.2,7.7
		c-1.3,0.8-1.9,1.8-1.9,3.3c-0.1,1.1-0.2,2.3-0.5,3.3c-0.6,1.9-2.6,2.9-4.6,2.2c-1.1-0.3-1.3-1.2-1.6-2.1c-0.2-0.8,0.1-2-1.1-2
		c-1.2,0-0.9,1.3-1.1,2.2c-0.2,1.2-0.6,2.2-2,2.3c-1,0.1-1.7-0.3-1.8-1.5c-0.3-2.3-0.6-2.6-3-2.7c-0.9,0-1.7-0.1-2.5-0.2
		c-2.2-0.3-3.9-1.4-4.8-3.5c-2.7-6.3-7.1-11.3-12.4-15.5c-3.4-2.7-5.5-6.2-5.7-10.6c0-0.8,0-1.6,0.2-2.3c0.2-0.5,0.8-1,1.3-1.1
		c0.3-0.1,0.9,0.6,1.1,1.1c0.2,0.5,0.2,1,0.2,1.6c0.2,3.5,3.4,7.2,6.9,7.7c1,0.1,2.2-0.3,3-0.8c2.5-1.4,4.1-3.7,5.5-6.2
		c0.2-0.3,0.2-0.8,0-1.1c-2.1-4.7-4.9-8.8-9.3-11.7c-1-0.7-2.3-1.1-3.5-1.3c-1.5-0.3-2.4,0.5-2.5,2.1c0,0.9,0.2,1.9,0,2.8
		C4,45,3.7,46,3.1,46.2c-0.9,0.5-2-0.1-2.3-1.1c-0.4-1.2-1-2.6-0.8-3.9c0.3-2.2,0.6-4.6,1.7-6.4c2.3-3.5,3.4-7.4,4.6-11.3
		c2-6.5,5.2-12.4,10.6-16.8c6-4.9,12.9-6.6,20.5-6.4C37.4,0.2,37.4,0.1,37.4,0z M34.7,49.4c0,7.2,5.6,13,12.5,13.1
		c6.8,0,12.6-5.8,12.6-12.9c0-7.2-5.6-13-12.5-13C40.4,36.6,34.7,42.4,34.7,49.4z M22.9,56.8c-2,3.6-3.6,6.9-4.1,10.6
		c-0.4,2.8,0.8,3.5,3.4,3c3.2-0.6,6.3-0.9,9.1,1.5c0.8,0.7,1.9,0.8,2.7,0c0.9-0.8,0.2-1.6-0.4-2.2C30.2,65.4,26.6,61.3,22.9,56.8z"
		/>
	<path class="st0" d="M247.8,5.6c4.5,0,8.8,0,13.1,0c0.3,0,0.5,0.1,0.8,0.1c0,23.3,0,46.5,0,69.8c-4.7,0-9.3,0-13.9,0
		C247.8,52.3,247.8,29.1,247.8,5.6z"/>
</g>
</svg>
